<?xml version="1.0" encoding="utf-8"?>
<!-- Generator: Adobe Illustrator 18.0.0, SVG Export Plug-In . SVG Version: 6.00 Build 0)  -->
<!DOCTYPE svg PUBLIC "-//W3C//DTD SVG 1.1//EN" "http://www.w3.org/Graphics/SVG/1.1/DTD/svg11.dtd">
<svg version="1.1" id="Capa_1" xmlns="http://www.w3.org/2000/svg" xmlns:xlink="http://www.w3.org/1999/xlink" x="0px" y="0px"
	 viewBox="-1416.7 332.2 132.7 122" preserveAspectRatio="none" height="122" width="132">
<style type="text/css">
	.st0{fill:url(#SVGID_1_);}
	.st1{fill:url(#SVGID_2_);}
	.st2{fill:url(#SVGID_3_);}
	.st3{fill:url(#SVGID_4_);}
	.st4{fill:url(#SVGID_5_);}
	.st5{fill:#FFFFFF;}
</style>
<linearGradient id="SVGID_1_" gradientUnits="userSpaceOnUse" x1="-301.3139" y1="894.9196" x2="-301.3139" y2="894.3641" gradientTransform="matrix(118.8 0 0 -134.3 34445.6055 120568.2031)">
	<stop  offset="0" style="stop-color:#0069FF;stop-opacity:0.2"/>
	<stop  offset="1" style="stop-color:#0069FF;stop-opacity:0"/>
</linearGradient>
<path class="st0" d="M-1285,452l-116,15.7l-14.9-55.9l91.4-53.4L-1285,452z"/>
<linearGradient id="SVGID_2_" gradientUnits="userSpaceOnUse" x1="-1417.6593" y1="1050.9371" x2="-1370.4064" y2="1129.7885" gradientTransform="matrix(0.9999 -1.628021e-002 -1.628021e-002 -0.9999 18.2036 1439.3799)">
	<stop  offset="0" style="stop-color:#2F69F2"/>
	<stop  offset="0.3324" style="stop-color:#254BC2"/>
	<stop  offset="0.7844" style="stop-color:#192585"/>
	<stop  offset="1" style="stop-color:#14166D"/>
</linearGradient>
<polygon class="st1" points="-1416,411.9 -1416.7,358.5 -1370.1,332.2 -1370.1,385.2 "/>
<linearGradient id="SVGID_3_" gradientUnits="userSpaceOnUse" x1="-929.9871" y1="1047.3748" x2="-884.5655" y2="1127.9172" gradientTransform="matrix(-0.9999 1.011144e-002 -1.011144e-002 -0.9999 -2243.9514 1468.8688)">
	<stop  offset="0" style="stop-color:#2F69F2"/>
	<stop  offset="0.3324" style="stop-color:#254BC2"/>
	<stop  offset="0.7844" style="stop-color:#192585"/>
	<stop  offset="1" style="stop-color:#14166D"/>
</linearGradient>
<polygon class="st2" points="-1324.2,411.9 -1324.6,358.5 -1371.1,332.2 -1371.1,385.2 "/>
<linearGradient id="SVGID_4_" gradientUnits="userSpaceOnUse" x1="-1370.0723" y1="438.3514" x2="-1370.0723" y2="385.2297">
	<stop  offset="0" style="stop-color:#2F69F2"/>
	<stop  offset="0.3324" style="stop-color:#254BC2"/>
	<stop  offset="0.7844" style="stop-color:#192585"/>
	<stop  offset="1" style="stop-color:#14166D"/>
</linearGradient>
<polygon class="st3" points="-1416,411.9 -1370.1,385.2 -1324.2,411.9 -1370.1,438.4 "/>
<g>
	<linearGradient id="SVGID_5_" gradientUnits="userSpaceOnUse" x1="-1400.3209" y1="385.352" x2="-1342.0804" y2="385.352">
		<stop  offset="0" style="stop-color:#F5F5F5"/>
		<stop  offset="1" style="stop-color:#B2B2CB"/>
	</linearGradient>
	<path class="st4" d="M-1386.4,363.4c1.4-0.9,3.3-1,5.4,0.1c0,0,0,0,0,0l5.8-3.4c2.3-1.4,5.3-1.3,8.6,0.6
		c5.8,3.3,10.7,11.3,12.3,19.2c1.1,0,2.3,0.3,3.6,1c4.8,2.8,8.7,10.2,8.7,16.5c0,3.6-1.2,6.1-3.2,7.1l-10.8,6.3
		c-1.5,1-3.6,1-5.8-0.3l-29.8-17.2c-4.8-2.8-8.6-10.2-8.6-16.5c0-3.6,1.2-6.1,3.2-7.1L-1386.4,363.4z"/>
	<path class="st5" d="M-1391.7,370.2c0.6,0.4,1.3,0.8,1.9,1.4c1.8-5.6,6.5-7.6,12.1-4.4c5.8,3.3,10.7,11.3,12.3,19.2
		c1.1,0,2.3,0.3,3.6,1c4.8,2.8,8.7,10.2,8.7,16.5c0,6.4-3.9,9.3-8.7,6.5l-29.8-17.2c-4.8-2.8-8.6-10.2-8.6-16.5
		C-1400.3,370.4-1396.4,367.5-1391.7,370.2z"/>
</g>
</svg>
