<?xml version="1.0" encoding="utf-8"?>
<!-- Generator: Adobe Illustrator 18.0.0, SVG Export Plug-In . SVG Version: 6.00 Build 0)  -->
<!DOCTYPE svg PUBLIC "-//W3C//DTD SVG 1.1//EN" "http://www.w3.org/Graphics/SVG/1.1/DTD/svg11.dtd">
<svg version="1.1" id="Layer_1" xmlns="http://www.w3.org/2000/svg" xmlns:xlink="http://www.w3.org/1999/xlink" x="0px" y="0px"
	 viewBox="0 0 174 260" enable-background="new 0 0 174 260" xml:space="preserve">
<g>
	<g>
		<linearGradient id="SVGID_1_" gradientUnits="userSpaceOnUse" x1="45.7265" y1="147.1169" x2="128.2735" y2="229.6638">
			<stop  offset="0" style="stop-color:#AEB1F6"/>
			<stop  offset="0.2362" style="stop-color:#B2B5F6"/>
			<stop  offset="0.453" style="stop-color:#BDBFF8"/>
			<stop  offset="0.6624" style="stop-color:#CFD1FA"/>
			<stop  offset="0.8658" style="stop-color:#E9EAFD"/>
			<stop  offset="1" style="stop-color:#FFFFFF"/>
		</linearGradient>
		<polygon fill="url(#SVGID_1_)" points="86.5,139.6 169.6,188.3 87.9,237.3 4.4,188.4 		"/>
		<linearGradient id="SVGID_2_" gradientUnits="userSpaceOnUse" x1="173.6919" y1="195.4348" x2="83.8396" y2="247.3111">
			<stop  offset="0" style="stop-color:#1425AF"/>
			<stop  offset="1" style="stop-color:#3A7FFF"/>
		</linearGradient>
		<polygon fill="url(#SVGID_2_)" points="87.9,237.3 87.9,254.4 169.6,205.5 169.6,188.3 		"/>
		<linearGradient id="SVGID_3_" gradientUnits="userSpaceOnUse" x1="0.5598" y1="195.0976" x2="91.7512" y2="247.747">
			<stop  offset="0" style="stop-color:#1425AF"/>
			<stop  offset="1" style="stop-color:#3A7FFF"/>
		</linearGradient>
		<polygon fill="url(#SVGID_3_)" points="87.9,237.3 87.9,254.4 4.4,204.1 4.4,188.4 		"/>
	</g>
	<ellipse fill="#1A0D5D" cx="84.2" cy="179.3" rx="46.2" ry="30.2"/>
	<g>
		<linearGradient id="SVGID_4_" gradientUnits="userSpaceOnUse" x1="30.9335" y1="166.6964" x2="137.3728" y2="166.6964">
			<stop  offset="0" style="stop-color:#5863D9"/>
			<stop  offset="0.2349" style="stop-color:#5C66D9"/>
			<stop  offset="0.4505" style="stop-color:#6770DB"/>
			<stop  offset="0.6585" style="stop-color:#7981DD"/>
			<stop  offset="0.8608" style="stop-color:#9399E1"/>
			<stop  offset="1" style="stop-color:#AAADE4"/>
		</linearGradient>
		<path fill="url(#SVGID_4_)" d="M134.1,156.1c-7.5-11.8-27-20.2-50-20.2c-24.6,0-45.2,9.6-51.4,22.7l-1.8-3.1v11.2
			c0,17,23.8,30.8,53.2,30.8s53.2-13.8,53.2-30.8v-11.6L134.1,156.1z"/>
		<linearGradient id="SVGID_5_" gradientUnits="userSpaceOnUse" x1="30.9335" y1="155.1332" x2="137.3728" y2="155.1332">
			<stop  offset="0" style="stop-color:#AEB1F6"/>
			<stop  offset="0.2362" style="stop-color:#B2B5F6"/>
			<stop  offset="0.453" style="stop-color:#BDBFF8"/>
			<stop  offset="0.6624" style="stop-color:#CFD1FA"/>
			<stop  offset="0.8658" style="stop-color:#E9EAFD"/>
			<stop  offset="1" style="stop-color:#FFFFFF"/>
		</linearGradient>
		<ellipse fill="url(#SVGID_5_)" cx="84.2" cy="155.1" rx="53.2" ry="30.8"/>
		<ellipse fill="#24116B" cx="84.2" cy="152.6" rx="50.8" ry="29.4"/>
		<ellipse fill="#433C9B" cx="84.2" cy="147.8" rx="50.8" ry="29.4"/>
		<path fill="#352786" d="M33.4,147.8c0,0-1.1,22.6,39.7,28.7c0,0,20.5,0.2,34.9-10.4c5.8-4.3-73.9-18.3-73.9-18.3"/>
	</g>
	<linearGradient id="SVGID_6_" gradientUnits="userSpaceOnUse" x1="30.9335" y1="138.6818" x2="137.3728" y2="138.6818">
		<stop  offset="0" style="stop-color:#5863D9"/>
		<stop  offset="0.2349" style="stop-color:#5C66D9"/>
		<stop  offset="0.4505" style="stop-color:#6770DB"/>
		<stop  offset="0.6585" style="stop-color:#7981DD"/>
		<stop  offset="0.8608" style="stop-color:#9399E1"/>
		<stop  offset="1" style="stop-color:#AAADE4"/>
	</linearGradient>
	<path fill="url(#SVGID_6_)" d="M134.1,128.1c-7.5-11.8-27-20.2-50-20.2c-24.6,0-45.2,9.6-51.4,22.7l-1.8-3.1v11.2
		c0,17,23.8,30.8,53.2,30.8s53.2-13.8,53.2-30.8v-11.6L134.1,128.1z"/>
	<linearGradient id="SVGID_7_" gradientUnits="userSpaceOnUse" x1="30.9335" y1="127.1186" x2="137.3728" y2="127.1186">
		<stop  offset="0" style="stop-color:#AEB1F6"/>
		<stop  offset="0.2362" style="stop-color:#B2B5F6"/>
		<stop  offset="0.453" style="stop-color:#BDBFF8"/>
		<stop  offset="0.6624" style="stop-color:#CFD1FA"/>
		<stop  offset="0.8658" style="stop-color:#E9EAFD"/>
		<stop  offset="1" style="stop-color:#FFFFFF"/>
	</linearGradient>
	<ellipse fill="url(#SVGID_7_)" cx="84.2" cy="127.1" rx="53.2" ry="30.8"/>
	<ellipse fill="#24116B" cx="84.2" cy="124.6" rx="50.8" ry="29.4"/>
	<ellipse fill="#433C9B" cx="84.2" cy="119.7" rx="50.8" ry="29.4"/>
	<path fill="#352786" d="M33.4,119.7c0,0-1.1,22.6,39.7,28.7c0,0,20.5,0.2,34.9-10.4c5.8-4.3-73.9-18.3-73.9-18.3"/>
	<g>
		<linearGradient id="SVGID_8_" gradientUnits="userSpaceOnUse" x1="30.9335" y1="110.6704" x2="137.3728" y2="110.6704">
			<stop  offset="0" style="stop-color:#5863D9"/>
			<stop  offset="0.2349" style="stop-color:#5C66D9"/>
			<stop  offset="0.4505" style="stop-color:#6770DB"/>
			<stop  offset="0.6585" style="stop-color:#7981DD"/>
			<stop  offset="0.8608" style="stop-color:#9399E1"/>
			<stop  offset="1" style="stop-color:#AAADE4"/>
		</linearGradient>
		<path fill="url(#SVGID_8_)" d="M134.1,100.1c-7.5-11.8-27-20.2-50-20.2c-24.6,0-45.2,9.6-51.4,22.7l-1.8-3.1v11.2
			c0,17,23.8,30.8,53.2,30.8s53.2-13.8,53.2-30.8V99.1L134.1,100.1z"/>
		<linearGradient id="SVGID_9_" gradientUnits="userSpaceOnUse" x1="30.9335" y1="99.1072" x2="137.3728" y2="99.1072">
			<stop  offset="0" style="stop-color:#AEB1F6"/>
			<stop  offset="0.2362" style="stop-color:#B2B5F6"/>
			<stop  offset="0.453" style="stop-color:#BDBFF8"/>
			<stop  offset="0.6624" style="stop-color:#CFD1FA"/>
			<stop  offset="0.8658" style="stop-color:#E9EAFD"/>
			<stop  offset="1" style="stop-color:#FFFFFF"/>
		</linearGradient>
		<ellipse fill="url(#SVGID_9_)" cx="84.2" cy="99.1" rx="53.2" ry="30.8"/>
		<ellipse fill="#24116B" cx="84.2" cy="96.5" rx="50.8" ry="29.4"/>
		<ellipse fill="#433C9B" cx="84.2" cy="91.7" rx="50.8" ry="29.4"/>
		<path fill="#352786" d="M33.4,91.7c0,0-1.1,22.6,39.7,28.7c0,0,20.5,0.2,34.9-10.4c5.8-4.3-73.9-18.3-73.9-18.3"/>
	</g>
	<linearGradient id="SVGID_10_" gradientUnits="userSpaceOnUse" x1="30.9335" y1="82.6558" x2="137.3728" y2="82.6558">
		<stop  offset="0" style="stop-color:#5863D9"/>
		<stop  offset="0.2349" style="stop-color:#5C66D9"/>
		<stop  offset="0.4505" style="stop-color:#6770DB"/>
		<stop  offset="0.6585" style="stop-color:#7981DD"/>
		<stop  offset="0.8608" style="stop-color:#9399E1"/>
		<stop  offset="1" style="stop-color:#AAADE4"/>
	</linearGradient>
	<path fill="url(#SVGID_10_)" d="M134.1,72c-7.5-11.8-27-20.2-50-20.2c-24.6,0-45.2,9.6-51.4,22.7l-1.8-3.1v11.2
		c0,17,23.8,30.8,53.2,30.8s53.2-13.8,53.2-30.8V71.1L134.1,72z"/>
	<linearGradient id="SVGID_11_" gradientUnits="userSpaceOnUse" x1="30.9335" y1="71.0926" x2="137.3728" y2="71.0926">
		<stop  offset="0" style="stop-color:#AEB1F6"/>
		<stop  offset="0.2362" style="stop-color:#B2B5F6"/>
		<stop  offset="0.453" style="stop-color:#BDBFF8"/>
		<stop  offset="0.6624" style="stop-color:#CFD1FA"/>
		<stop  offset="0.8658" style="stop-color:#E9EAFD"/>
		<stop  offset="1" style="stop-color:#FFFFFF"/>
	</linearGradient>
	<ellipse fill="url(#SVGID_11_)" cx="84.2" cy="71.1" rx="53.2" ry="30.8"/>
	<ellipse fill="#24116B" cx="84.2" cy="68.5" rx="50.8" ry="29.4"/>
	<ellipse fill="#433C9B" cx="84.2" cy="63.7" rx="50.8" ry="29.4"/>
	<path fill="#352786" d="M33.4,63.7c0,0-1.1,22.6,39.7,28.7c0,0,20.5,0.2,34.9-10.4c5.8-4.3-73.9-18.3-73.9-18.3"/>
	<linearGradient id="SVGID_12_" gradientUnits="userSpaceOnUse" x1="30.9335" y1="54.8898" x2="137.3729" y2="54.8898">
		<stop  offset="0" style="stop-color:#5863D9"/>
		<stop  offset="0.2349" style="stop-color:#5C66D9"/>
		<stop  offset="0.4505" style="stop-color:#6770DB"/>
		<stop  offset="0.6585" style="stop-color:#7981DD"/>
		<stop  offset="0.8608" style="stop-color:#9399E1"/>
		<stop  offset="1" style="stop-color:#AAADE4"/>
	</linearGradient>
	<path fill="url(#SVGID_12_)" d="M137.4,55.6c0-0.2,0-0.5,0-0.7c0-0.2,0-0.5,0-0.7V38.8h-7.8c-9.4-8.8-26.2-14.8-45.4-14.8
		c-19.2,0-36.1,5.9-45.4,14.8h-7.8v16.1c0,17,23.8,30.8,53.2,30.8c28,0,51-12.5,53.1-28.4L137.4,55.6L137.4,55.6z"/>
	<ellipse fill="#FFFFFF" cx="84.2" cy="40.2" rx="53.2" ry="30.8"/>
	<linearGradient id="SVGID_13_" gradientUnits="userSpaceOnUse" x1="30.9335" y1="39.2716" x2="137.3728" y2="39.2716">
		<stop  offset="0" style="stop-color:#AEB1F6"/>
		<stop  offset="0.2362" style="stop-color:#B2B5F6"/>
		<stop  offset="0.453" style="stop-color:#BDBFF8"/>
		<stop  offset="0.6624" style="stop-color:#CFD1FA"/>
		<stop  offset="0.8658" style="stop-color:#E9EAFD"/>
		<stop  offset="1" style="stop-color:#FFFFFF"/>
	</linearGradient>
	<ellipse fill="url(#SVGID_13_)" cx="84.2" cy="39.3" rx="53.2" ry="30.8"/>
	<path fill="none" stroke="#53EEF2" stroke-width="2" stroke-miterlimit="10" d="M87,216"/>
</g>
</svg>
